# xmcd
#
# Track frame offsets:
#	150
#	13997
#	24747
#	40010
#	55437
#	67605
#	80395
#	91665
#	102170
#	113602
#	125950
#	141265
#	158805
#	172772
#	189495
#
# Disc length: 2718 seconds
#
# Revision: 0
# Processed by: cddbd v1.5.1PL0 Copyright (c) Steve Scherf et al.
# Submitted via: dBpowerAMP V4.0
#
DISCID=bb0a9c0f
DTITLE=Cornelio Reyna - 15 Exitod
DYEAR=2001
DGENRE=Latin
TTITLE0=Me Cai De La Nube
TTITLE1=Ya no Llores
TTITLE2=Por El Amor De Mi Madre
TTITLE3=El Espejo
TTITLE4=Hay Ojitos
TTITLE5=Mi Tesoro
TTITLE6=Si Tu Supieras
TTITLE7=Estamos En Paz
TTITLE8=Te Vas Angel Mio
TTITLE9=Ni Por Mil Punados de Oro
TTITLE10=Tu Traicion
TTITLE11=Vuelve Gaviota
TTITLE12=Cobardemente
TTITLE13=Con La Tinta De Mi Sangre
TTITLE14=Me Caiste Del Cielo
EXTD=By Herseleid
EXTT0=
EXTT1=
EXTT2=
EXTT3=
EXTT4=
EXTT5=
EXTT6=
EXTT7=
EXTT8=
EXTT9=
EXTT10=
EXTT11=
EXTT12=
EXTT13=
EXTT14=
PLAYORDER=
